<svg width="13" height="14" viewBox="0 0 13 14" fill="none" xmlns="http://www.w3.org/2000/svg">
<ellipse cx="6.5" cy="7" rx="6.5" ry="6.12616" fill="#7F833A"/>
<path d="M3.01172 4.35106C3.87961 4.35106 5.61538 3.74419 5.61538 1.31671C5.61538 2.32816 6.06819 4.35106 7.87944 4.35106C7.12475 4.35106 5.61538 4.97689 5.61538 7.48023C5.61538 6.43717 5.09465 4.35106 3.01172 4.35106Z" fill="#F2E3C6"/>
<path d="M7.87944 6.65239C8.45313 6.65239 9.60051 6.25008 9.60051 4.64086C9.60051 5.31137 9.89982 6.65239 11.0971 6.65239C10.5982 6.65239 9.60051 7.06727 9.60051 8.72679C9.60051 8.03532 9.25629 6.65239 7.87944 6.65239Z" fill="#F2E3C6"/>
<path d="M4.16677 9.96908C4.90227 9.96908 6.37327 9.47131 6.37327 7.48023C6.37327 8.30985 6.757 9.96908 8.29196 9.96908C7.65239 9.96908 6.37327 10.4824 6.37327 12.5357C6.37327 11.6802 5.93197 9.96908 4.16677 9.96908Z" fill="#F2E3C6"/>
</svg>
