<svg xmlns="http://www.w3.org/2000/svg" fill="none" viewBox="0 0 36.072 34.704" style="max-height: 500px" width="36.072" height="34.704">
<mask fill="black" height="35" width="37" y="-0.000488281" x="-1" maskUnits="userSpaceOnUse" id="path-1-outside-1_997_3955">
<rect height="35" width="37" y="-0.000488281" x="-1" fill="white"/>
<path d="M15.4194 2.5791C16.4589 0.472934 19.4628 0.473031 20.5024 2.5791L23.5483 8.75097C23.9611 9.58733 24.7591 10.1667 25.6821 10.3008L32.4927 11.291C34.8171 11.6288 35.7449 14.4855 34.063 16.125L29.1352 20.9287C28.4674 21.5797 28.1623 22.5173 28.3198 23.4365L29.4829 30.2197C29.88 32.5348 27.4506 34.3 25.3716 33.207L19.2798 30.0049C18.7185 29.7098 18.0829 29.6155 17.4741 29.7217C17.4497 29.7366 17.4244 29.7529 17.396 29.7666C16.9674 29.9737 12.7904 32.4421 10.2925 33.4853C9.75111 33.7114 9.14776 33.7817 8.58641 33.6113C8.2139 33.4982 8.04765 33.3765 8.02195 33.2617C6.94836 32.7491 6.2057 31.5796 6.43894 30.2197L7.60203 23.4365C7.75957 22.5174 7.45522 21.5797 6.78758 20.9287L1.85887 16.125C0.176995 14.4856 1.10505 11.629 3.42918 11.291L10.2407 10.3008C11.1635 10.1665 11.9618 9.58723 12.3745 8.75097L15.4194 2.5791Z"/>
</mask>
<path fill="#FFC517" d="M15.4194 2.5791C16.4589 0.472934 19.4628 0.473031 20.5024 2.5791L23.5483 8.75097C23.9611 9.58733 24.7591 10.1667 25.6821 10.3008L32.4927 11.291C34.8171 11.6288 35.7449 14.4855 34.063 16.125L29.1352 20.9287C28.4674 21.5797 28.1623 22.5173 28.3198 23.4365L29.4829 30.2197C29.88 32.5348 27.4506 34.3 25.3716 33.207L19.2798 30.0049C18.7185 29.7098 18.0829 29.6155 17.4741 29.7217C17.4497 29.7366 17.4244 29.7529 17.396 29.7666C16.9674 29.9737 12.7904 32.4421 10.2925 33.4853C9.75111 33.7114 9.14776 33.7817 8.58641 33.6113C8.2139 33.4982 8.04765 33.3765 8.02195 33.2617C6.94836 32.7491 6.2057 31.5796 6.43894 30.2197L7.60203 23.4365C7.75957 22.5174 7.45522 21.5797 6.78758 20.9287L1.85887 16.125C0.176995 14.4856 1.10505 11.629 3.42918 11.291L10.2407 10.3008C11.1635 10.1665 11.9618 9.58723 12.3745 8.75097L15.4194 2.5791Z"/>
<path mask="url(#path-1-outside-1_997_3955)" fill="#D0932F" d="M15.4194 2.5791L14.5227 2.13652L14.5226 2.13666L15.4194 2.5791ZM20.5024 2.5791L21.3992 2.13655L21.3991 2.13647L20.5024 2.5791ZM23.5483 8.75097L22.6516 9.19353L22.6516 9.19357L23.5483 8.75097ZM25.6821 10.3008L25.826 9.31119L25.8259 9.31117L25.6821 10.3008ZM32.4927 11.291L32.3488 12.2806L32.3488 12.2806L32.4927 11.291ZM34.063 16.125L33.365 15.4089L33.3649 15.4089L34.063 16.125ZM29.1352 20.9287L29.8332 21.6448L29.8333 21.6448L29.1352 20.9287ZM28.3198 23.4365L27.3342 23.6055L27.3342 23.6055L28.3198 23.4365ZM29.4829 30.2197L28.4973 30.3887L28.4973 30.3888L29.4829 30.2197ZM25.3716 33.207L25.8369 32.3219L25.8368 32.3219L25.3716 33.207ZM19.2798 30.0049L18.8144 30.89L18.8145 30.89L19.2798 30.0049ZM17.4741 29.7217L17.3023 28.7365L17.1143 28.7693L16.9516 28.869L17.4741 29.7217ZM17.396 29.7666L17.831 30.667L17.8312 30.6669L17.396 29.7666ZM10.2925 33.4853L10.6778 34.4081L10.6778 34.4081L10.2925 33.4853ZM8.58641 33.6113L8.29582 34.5682L8.29601 34.5682L8.58641 33.6113ZM8.02195 33.2617L8.99778 33.0432L8.89154 32.5688L8.45282 32.3593L8.02195 33.2617ZM6.43894 30.2197L7.42455 30.3888L7.42456 30.3887L6.43894 30.2197ZM7.60203 23.4365L8.58765 23.6055L8.58765 23.6055L7.60203 23.4365ZM6.78758 20.9287L7.48569 20.2127L7.48554 20.2126L6.78758 20.9287ZM1.85887 16.125L1.16085 16.8411L1.1609 16.8411L1.85887 16.125ZM3.42918 11.291L3.28531 10.3014L3.28525 10.3014L3.42918 11.291ZM10.2407 10.3008L10.3846 11.2904L10.3847 11.2904L10.2407 10.3008ZM12.3745 8.75097L13.2712 9.19354L13.2713 9.19341L12.3745 8.75097ZM15.4194 2.5791L16.3161 3.02168C16.9888 1.65882 18.9329 1.65874 19.6057 3.02173L20.5024 2.5791L21.3991 2.13647C19.9927 -0.712677 15.929 -0.712954 14.5227 2.13652L15.4194 2.5791ZM20.5024 2.5791L19.6057 3.02165L22.6516 9.19353L23.5483 8.75097L24.4451 8.30842L21.3992 2.13655L20.5024 2.5791ZM23.5483 8.75097L22.6516 9.19357C23.2102 10.3253 24.2899 11.109 25.5383 11.2904L25.6821 10.3008L25.8259 9.31117C25.2283 9.22434 24.712 8.84935 24.445 8.30838L23.5483 8.75097ZM25.6821 10.3008L25.5382 11.2904L32.3488 12.2806L32.4927 11.291L32.6365 10.3014L25.826 9.31119L25.6821 10.3008ZM32.4927 11.291L32.3488 12.2806C33.8528 12.4992 34.4536 14.3478 33.365 15.4089L34.063 16.125L34.761 16.8411C37.0363 14.6232 35.7813 10.7584 32.6365 10.3014L32.4927 11.291ZM34.063 16.125L33.3649 15.4089L28.4372 20.2126L29.1352 20.9287L29.8333 21.6448L34.761 16.8411L34.063 16.125ZM29.1352 20.9287L28.4372 20.2126C27.534 21.0931 27.121 22.3616 27.3342 23.6055L28.3198 23.4365L29.3054 23.2676C29.2035 22.6731 29.4008 22.0663 29.8332 21.6448L29.1352 20.9287ZM28.3198 23.4365L27.3342 23.6055L28.4973 30.3887L29.4829 30.2197L30.4685 30.0507L29.3054 23.2675L28.3198 23.4365ZM29.4829 30.2197L28.4973 30.3888C28.7543 31.887 27.1822 33.0291 25.8369 32.3219L25.3716 33.207L24.9062 34.0922C27.719 35.5709 31.0056 33.1825 30.4685 30.0507L29.4829 30.2197ZM25.3716 33.207L25.8368 32.3219L19.745 29.1197L19.2798 30.0049L18.8145 30.89L24.9063 34.0922L25.3716 33.207ZM19.2798 30.0049L19.7451 29.1197C18.9855 28.7204 18.1256 28.593 17.3023 28.7365L17.4741 29.7217L17.6459 30.7068C18.0403 30.638 18.4515 30.6992 18.8144 30.89L19.2798 30.0049ZM17.4741 29.7217L16.9516 28.869C16.9472 28.8717 16.943 28.8743 16.9399 28.8762C16.9364 28.8784 16.9343 28.8797 16.9321 28.8811C16.9278 28.8837 16.927 28.8842 16.9276 28.8838C16.9288 28.8831 16.9413 28.8757 16.9607 28.8663L17.396 29.7666L17.8312 30.6669C17.9163 30.6258 17.9957 30.5749 17.9966 30.5743L17.4741 29.7217ZM17.396 29.7666L16.9609 28.8662C16.8161 28.9362 16.4294 29.1555 15.9653 29.4173C15.4748 29.6939 14.8388 30.052 14.1393 30.4356C12.7292 31.2091 11.1019 32.0636 9.90707 32.5626L10.2925 33.4853L10.6778 34.4081C11.9809 33.8639 13.6911 32.9625 15.1011 32.1892C15.8117 31.7994 16.4565 31.4364 16.9477 31.1593C17.1945 31.0202 17.3999 30.9042 17.5575 30.8163C17.6362 30.7723 17.7003 30.7369 17.75 30.7099C17.7748 30.6965 17.7944 30.686 17.8094 30.6781C17.8254 30.6697 17.8317 30.6667 17.831 30.667L17.396 29.7666ZM10.2925 33.4853L9.90713 32.5626C9.53322 32.7187 9.17149 32.7439 8.8768 32.6544L8.58641 33.6113L8.29601 34.5682C9.12403 34.8195 9.96901 34.7041 10.6778 34.4081L10.2925 33.4853ZM8.58641 33.6113L8.87699 32.6545C8.73476 32.6113 8.69808 32.5851 8.7162 32.5968C8.72764 32.6042 8.77452 32.6356 8.82925 32.6997C8.88591 32.7661 8.96132 32.8803 8.99778 33.0432L8.02195 33.2617L7.04612 33.4803C7.14331 33.9142 7.45187 34.1612 7.63206 34.2775C7.83285 34.407 8.06555 34.4982 8.29582 34.5682L8.58641 33.6113ZM8.02195 33.2617L8.45282 32.3593C7.74189 32.0199 7.2744 31.2643 7.42455 30.3888L6.43894 30.2197L5.45334 30.0507C5.13701 31.895 6.15483 33.4784 7.59109 34.1641L8.02195 33.2617ZM6.43894 30.2197L7.42456 30.3887L8.58765 23.6055L7.60203 23.4365L6.61641 23.2675L5.45333 30.0507L6.43894 30.2197ZM7.60203 23.4365L8.58765 23.6055C8.80075 22.3623 8.38911 21.0936 7.48569 20.2127L6.78758 20.9287L6.08946 21.6447C6.52133 22.0658 6.7184 22.6726 6.61641 23.2676L7.60203 23.4365ZM6.78758 20.9287L7.48554 20.2126L2.55683 15.4089L1.85887 16.125L1.1609 16.8411L6.08961 21.6448L6.78758 20.9287ZM1.85887 16.125L2.55688 15.4089C1.46851 14.348 2.06908 12.4993 3.57311 12.2806L3.42918 11.291L3.28525 10.3014C0.141015 10.7587 -1.11452 14.6231 1.16085 16.8411L1.85887 16.125ZM3.42918 11.291L3.57304 12.2806L10.3846 11.2904L10.2407 10.3008L10.0968 9.31118L3.28531 10.3014L3.42918 11.291ZM10.2407 10.3008L10.3847 11.2904C11.6326 11.1088 12.7126 10.3254 13.2712 9.19354L12.3745 8.75097L11.4778 8.30841C11.2109 8.84911 10.6944 9.22424 10.0967 9.3112L10.2407 10.3008ZM12.3745 8.75097L13.2713 9.19341L16.3162 3.02154L15.4194 2.5791L14.5226 2.13666L11.4777 8.30854L12.3745 8.75097Z"/>
<path fill="#FFF200" d="M12.8086 9.02907L16.5871 1.94432C19.421 0.0550486 18.4764 5.72282 18.0041 6.66746C17.5816 7.51238 17.5318 8.08443 15.6425 9.02906C14.9666 9.36702 12.8083 10.446 12.8086 9.02907Z"/>
<path fill="#FFF200" d="M2.41826 12.3352C2.92523 12.1663 7.92862 11.2332 10.4476 10.9183C11.3926 10.9183 13.7529 11.3906 10.9195 13.2799C10.041 13.8656 3.3624 14.6968 2.41776 14.6968C1.47313 14.6968 1.0005 12.8076 2.41826 12.3352Z"/>
<path fill="#DEB800" d="M34.0612 16.1138C34.817 15.3581 35.478 13.7522 34.5334 12.8076C34.0612 13.2799 34.5334 13.7522 33.1164 15.1692C31.542 16.7435 29.6077 17.8359 28.8668 18.9477C27.9225 20.3646 27.9214 22.2539 30.2825 19.8923L34.0612 16.1138Z"/>
<path fill="#DEB800" d="M9.97419 33.5895C8.98186 33.9863 8.08907 33.5929 7.61331 33.1172C6.19623 31.7002 7.61313 32.1725 9.50184 31.7002C11.864 31.2279 13.2811 30.2832 15.1702 29.3386C16.1147 28.8664 18.9482 29.0869 16.5874 30.2832C14.7998 31.1888 12.3365 32.6448 9.97419 33.5895Z"/>
<path fill="#DEB800" d="M25.0872 33.1172L22.2531 31.7002C21.8531 30.9634 25.3772 32.0686 26.9771 31.7002C28.577 31.3318 27.7446 26.3283 28.8657 27.4494C29.338 27.9217 30.1393 31.0879 28.7588 32.6449C27.9213 33.5895 26.5044 34.0618 25.0872 33.1172Z"/>
</svg>