<svg width="35" height="34" viewBox="0 0 35 34" fill="none" xmlns="http://www.w3.org/2000/svg">
<path d="M15.8038 1.2521C16.3377 -0.41737 18.6623 -0.417367 19.1962 1.25211L22.1047 10.3473C22.3435 11.0939 23.0282 11.5994 23.8009 11.5994H33.2131C34.9408 11.5994 35.6591 13.8457 34.2614 14.8775L26.6467 20.4986C26.0217 20.96 25.7601 21.7779 25.9989 22.5246L28.9074 31.6198C29.4413 33.2892 27.5607 34.6775 26.163 33.6457L18.5483 28.0246C17.9232 27.5631 17.0768 27.5631 16.4517 28.0246L8.83704 33.6457C7.43932 34.6775 5.55871 33.2892 6.09259 31.6198L9.00114 22.5246C9.23989 21.7779 8.97834 20.96 8.35326 20.4986L0.738582 14.8775C-0.659132 13.8457 0.0592009 11.5994 1.78687 11.5994H11.1991C11.9718 11.5994 12.6565 11.0939 12.8953 10.3473L15.8038 1.2521Z" fill="#D9D9D9"/>
<path d="M1.89479 12.2567H11.0474C11.1858 12.2567 11.3267 12.2837 11.4391 12.3659C11.83 12.6517 11.6072 12.9394 11.3666 13.0992C11.2969 13.1455 11.2175 13.1705 11.1355 13.1852C7.93502 13.7572 2.99276 13.3863 1.67197 13.1627C0.57248 12.9765 1.00307 12.2567 1.89479 12.2567Z" fill="#F6F6F6"/>
<path d="M16.9548 2.53569C17.021 2.68623 17.0541 2.90068 17.0541 3.16395L16.8954 5.76829C16.8532 6.4605 16.6551 7.13363 16.3164 7.73579L15.2165 9.69149C15.1046 9.89056 15.051 10.0479 14.8287 10.0868C14.2162 10.1942 14.0338 9.29982 14.2138 8.69543L15.6783 3.77908C15.8983 3.04052 16.6448 1.83125 16.9548 2.53569Z" fill="#F6F6F6"/>
<path d="M26.69 20.4375L34.1158 14.9882C34.3334 14.8285 34.5935 14.5808 34.736 14.3496C34.9787 13.9558 34.6965 13.974 34.3175 14.234L26.6579 19.4872C26.2047 19.798 25.635 20.5645 26.1662 20.6962C26.3836 20.7501 26.5086 20.5706 26.69 20.4375Z" fill="#BCBCBC"/>
<path d="M8.9517 33.5615L16.0507 28.2846C16.2004 28.1733 16.4398 28.0043 16.2545 27.9963C15.9484 27.9832 15.5865 28.1979 15.3295 28.3673L8.19321 33.0709C7.93669 33.24 7.55608 33.5217 7.71128 33.7894C7.95312 34.2064 8.56717 33.8473 8.9517 33.5615Z" fill="#BCBCBC"/>
<path d="M28.5775 32.9231C28.2372 34.1208 26.8996 34.2513 25.4238 33.0459C25.0618 32.7502 25.4178 32.24 25.868 32.3563C26.6986 32.5708 27.3396 32.572 27.8279 32.4346C28.1922 32.3321 28.6823 32.5541 28.5775 32.9231Z" fill="#BCBCBC"/>
</svg>
