<svg xmlns="http://www.w3.org/2000/svg" fill="none" viewBox="0 0.5771999999999999 36 34.854" style="max-height: 500px" width="36" height="34.854">
<mask fill="black" height="35" width="37" y="0.674377" x="-1" maskUnits="userSpaceOnUse" id="path-1-outside-1_997_4228">
<rect height="35" width="37" y="0.674377" x="-1" fill="white"/>
<path d="M15.4195 3.25385C16.4591 1.14786 19.462 1.14791 20.5016 3.25385L23.5475 9.42573C23.9602 10.262 24.7583 10.8413 25.6812 10.9755L32.4918 11.9658C34.816 12.3035 35.7445 15.1592 34.0631 16.7988L29.1344 21.6035C28.4667 22.2545 28.1623 23.1921 28.3199 24.1113L29.483 30.8945C29.8801 33.2095 27.4497 34.9748 25.3707 33.8818L19.2789 30.6796C18.7182 30.3849 18.0834 30.2898 17.4752 30.3955C17.4503 30.4108 17.4242 30.4273 17.3951 30.4414C16.9656 30.649 12.7902 33.1169 10.2926 34.1601C9.75107 34.3863 9.14705 34.4566 8.58554 34.2861C8.21328 34.173 8.04793 34.0511 8.02206 33.9365C6.9482 33.424 6.2048 32.2546 6.43808 30.8945L7.60214 24.1113C7.7597 23.1921 7.45446 22.2544 6.78671 21.6035L1.85898 16.7988C0.177011 15.1593 1.10487 12.3035 3.42929 11.9658L10.2398 10.9755C11.1628 10.8414 11.9608 10.2621 12.3736 9.42573L15.4195 3.25385Z"/>
</mask>
<path fill="#D9D9D9" d="M15.4195 3.25385C16.4591 1.14786 19.462 1.14791 20.5016 3.25385L23.5475 9.42573C23.9602 10.262 24.7583 10.8413 25.6812 10.9755L32.4918 11.9658C34.816 12.3035 35.7445 15.1592 34.0631 16.7988L29.1344 21.6035C28.4667 22.2545 28.1623 23.1921 28.3199 24.1113L29.483 30.8945C29.8801 33.2095 27.4497 34.9748 25.3707 33.8818L19.2789 30.6796C18.7182 30.3849 18.0834 30.2898 17.4752 30.3955C17.4503 30.4108 17.4242 30.4273 17.3951 30.4414C16.9656 30.649 12.7902 33.1169 10.2926 34.1601C9.75107 34.3863 9.14705 34.4566 8.58554 34.2861C8.21328 34.173 8.04793 34.0511 8.02206 33.9365C6.9482 33.424 6.2048 32.2546 6.43808 30.8945L7.60214 24.1113C7.7597 23.1921 7.45446 22.2544 6.78671 21.6035L1.85898 16.7988C0.177011 15.1593 1.10487 12.3035 3.42929 11.9658L10.2398 10.9755C11.1628 10.8414 11.9608 10.2621 12.3736 9.42573L15.4195 3.25385Z"/>
<path mask="url(#path-1-outside-1_997_4228)" fill="#A1A1A1" d="M15.4195 3.25385L14.5228 2.81122L14.5228 2.8113L15.4195 3.25385ZM20.5016 3.25385L21.3983 2.8113L21.3982 2.8112L20.5016 3.25385ZM23.5475 9.42573L22.6507 9.86828L22.6507 9.8683L23.5475 9.42573ZM25.6812 10.9755L25.5373 11.9651L25.5374 11.9651L25.6812 10.9755ZM32.4918 11.9658L32.3479 12.9554L32.348 12.9554L32.4918 11.9658ZM34.0631 16.7988L34.7611 17.5148L34.7612 17.5147L34.0631 16.7988ZM29.1344 21.6035L28.4363 20.8874L28.4363 20.8875L29.1344 21.6035ZM28.3199 24.1113L27.3343 24.2803V24.2803L28.3199 24.1113ZM29.483 30.8945L28.4974 31.0635L28.4974 31.0635L29.483 30.8945ZM25.3707 33.8818L25.836 32.9966L25.836 32.9966L25.3707 33.8818ZM19.2789 30.6796L19.7442 29.7945L19.7441 29.7944L19.2789 30.6796ZM17.4752 30.3955L17.304 29.4102L17.1146 29.4431L16.9509 29.5439L17.4752 30.3955ZM17.3951 30.4414L16.96 29.541L16.9598 29.541L17.3951 30.4414ZM10.2926 34.1601L10.678 35.0829L10.678 35.0828L10.2926 34.1601ZM8.58554 34.2861L8.29495 35.2429L8.29498 35.2429L8.58554 34.2861ZM8.02206 33.9365L8.99756 33.7165L8.89078 33.243L8.45275 33.034L8.02206 33.9365ZM6.43808 30.8945L5.45249 30.7253L5.45247 30.7254L6.43808 30.8945ZM7.60214 24.1113L8.58773 24.2804L8.58777 24.2802L7.60214 24.1113ZM6.78671 21.6035L6.0886 22.3195L6.08865 22.3195L6.78671 21.6035ZM1.85898 16.7988L2.55709 16.0828L2.55699 16.0827L1.85898 16.7988ZM3.42929 11.9658L3.57309 12.9554L3.57317 12.9554L3.42929 11.9658ZM10.2398 10.9755L10.096 9.98593L10.096 9.98594L10.2398 10.9755ZM12.3736 9.42573L13.2703 9.86832L13.2704 9.86828L12.3736 9.42573ZM15.4195 3.25385L16.3162 3.69648C16.9889 2.33369 18.9321 2.33365 19.6049 3.69651L20.5016 3.25385L21.3982 2.8112C19.9918 -0.037829 15.9292 -0.0379692 14.5228 2.81122L15.4195 3.25385ZM20.5016 3.25385L19.6048 3.6964L22.6507 9.86828L23.5475 9.42573L24.4442 8.98317L21.3983 2.8113L20.5016 3.25385ZM23.5475 9.42573L22.6507 9.8683C23.2093 11.0001 24.2892 11.7836 25.5373 11.9651L25.6812 10.9755L25.8251 9.98594C25.2275 9.89903 24.7111 9.52398 24.4442 8.98316L23.5475 9.42573ZM25.6812 10.9755L25.5374 11.9651L32.3479 12.9554L32.4918 11.9658L32.6357 10.9762L25.8251 9.98594L25.6812 10.9755ZM32.4918 11.9658L32.348 12.9554C33.8524 13.174 34.4528 15.022 33.3649 16.0828L34.0631 16.7988L34.7612 17.5147C37.0362 15.2964 35.7797 11.433 32.6356 10.9762L32.4918 11.9658ZM34.0631 16.7988L33.365 16.0827L28.4363 20.8874L29.1344 21.6035L29.8324 22.3195L34.7611 17.5148L34.0631 16.7988ZM29.1344 21.6035L28.4363 20.8875C27.5328 21.7683 27.1211 23.037 27.3343 24.2803L28.3199 24.1113L29.3055 23.9423C29.2035 23.3472 29.4005 22.7406 29.8325 22.3195L29.1344 21.6035ZM28.3199 24.1113L27.3343 24.2803L28.4974 31.0635L29.483 30.8945L30.4686 30.7255L29.3055 23.9423L28.3199 24.1113ZM29.483 30.8945L28.4974 31.0635C28.7543 32.5614 27.1817 33.7041 25.836 32.9966L25.3707 33.8818L24.9054 34.7669C27.7178 36.2455 31.0058 33.8576 30.4686 30.7254L29.483 30.8945ZM25.3707 33.8818L25.836 32.9966L19.7442 29.7945L19.2789 30.6796L18.8136 31.5648L24.9054 34.7669L25.3707 33.8818ZM19.2789 30.6796L19.7441 29.7944C18.9861 29.3961 18.1274 29.2671 17.304 29.4102L17.4752 30.3955L17.6464 31.3807C18.0395 31.3124 18.4502 31.3738 18.8137 31.5648L19.2789 30.6796ZM17.4752 30.3955L16.9509 29.5439C16.9472 29.5462 16.9431 29.5487 16.9406 29.5503C16.9376 29.5521 16.9355 29.5534 16.9337 29.5545C16.9301 29.5567 16.9293 29.5572 16.93 29.5568C16.9312 29.5561 16.9424 29.5495 16.96 29.541L17.3951 30.4414L17.8302 31.3418C17.9155 31.3005 17.9906 31.2525 17.9995 31.247L17.4752 30.3955ZM17.3951 30.4414L16.9598 29.541C16.8149 29.6111 16.4282 29.8305 15.9641 30.0923C15.4736 30.369 14.8377 30.727 14.1384 31.1107C12.7286 31.884 11.1018 32.7384 9.90717 33.2374L10.2926 34.1601L10.678 35.0828C11.9809 34.5387 13.6907 33.6375 15.1003 32.8642C15.8108 32.4744 16.4554 32.1114 16.9466 31.8343C17.1934 31.6952 17.3988 31.5792 17.5564 31.4912C17.6352 31.4472 17.6993 31.4117 17.7491 31.3848C17.7739 31.3713 17.7935 31.3608 17.8086 31.3529C17.8246 31.3445 17.8309 31.3414 17.8304 31.3417L17.3951 30.4414ZM10.2926 34.1601L9.90718 33.2373C9.53317 33.3936 9.17087 33.4187 8.8761 33.3292L8.58554 34.2861L8.29498 35.2429C9.12324 35.4944 9.96897 35.379 10.678 35.0829L10.2926 34.1601ZM8.58554 34.2861L8.87613 33.3292C8.73442 33.2862 8.69841 33.2602 8.71707 33.2723C8.72883 33.2799 8.77564 33.3113 8.83017 33.3754C8.88665 33.4418 8.9612 33.5552 8.99756 33.7165L8.02206 33.9365L7.04657 34.1565C7.14382 34.5877 7.44953 34.8343 7.63073 34.9515C7.8316 35.0815 8.0644 35.1729 8.29495 35.2429L8.58554 34.2861ZM8.02206 33.9365L8.45275 33.034C7.7413 32.6945 7.27357 31.9388 7.42369 31.0635L6.43808 30.8945L5.45247 30.7254C5.13603 32.5704 6.1551 34.1535 7.59137 34.839L8.02206 33.9365ZM6.43808 30.8945L7.42367 31.0636L8.58773 24.2804L7.60214 24.1113L6.61655 23.9421L5.45249 30.7253L6.43808 30.8945ZM7.60214 24.1113L8.58777 24.2802C8.80099 23.0363 8.38784 21.7678 7.48477 20.8874L6.78671 21.6035L6.08865 22.3195C6.52108 22.7411 6.7184 23.3479 6.61652 23.9423L7.60214 24.1113ZM6.78671 21.6035L7.48482 20.8875L2.55709 16.0828L1.85898 16.7988L1.16087 17.5148L6.0886 22.3195L6.78671 21.6035ZM1.85898 16.7988L2.55699 16.0827C1.46853 15.0217 2.06891 13.1739 3.57309 12.9554L3.42929 11.9658L3.28549 10.9762C0.140832 11.4331 -1.1145 15.2968 1.16097 17.5149L1.85898 16.7988ZM3.42929 11.9658L3.57317 12.9554L10.3837 11.9651L10.2398 10.9755L10.096 9.98594L3.28541 10.9762L3.42929 11.9658ZM10.2398 10.9755L10.3837 11.9651C11.632 11.7837 12.7118 11.0001 13.2703 9.86832L12.3736 9.42573L11.4769 8.98313C11.2099 9.52405 10.6936 9.89907 10.096 9.98593L10.2398 10.9755ZM12.3736 9.42573L13.2704 9.86828L16.3163 3.6964L15.4195 3.25385L14.5228 2.8113L11.4769 8.98317L12.3736 9.42573Z"/>
<path fill="#F6F6F6" d="M12.8076 9.70371L16.5861 2.61897C19.42 0.729694 18.4754 6.39747 18.0031 7.3421C17.5806 8.18702 17.5308 8.75907 15.6415 9.70371C14.9656 10.0417 12.8073 11.1207 12.8076 9.70371Z"/>
<path fill="#F6F6F6" d="M2.41826 13.0099C2.92523 12.841 7.92862 11.9078 10.4476 11.593C11.3926 11.593 13.7529 12.0653 10.9195 13.9545C10.041 14.5403 3.3624 15.3715 2.41776 15.3715C1.47313 15.3715 1.0005 13.4822 2.41826 13.0099Z"/>
<path fill="#BCBCBC" d="M34.0603 16.7884C34.816 16.0327 35.477 14.4269 34.5324 13.4822C34.0603 13.9545 34.5324 14.4269 33.1155 15.8438C31.5411 17.4182 29.6067 18.5105 28.8658 19.6223C27.9215 21.0393 27.9204 22.9285 30.2815 20.567L34.0603 16.7884Z"/>
<path fill="#BCBCBC" d="M9.97322 34.2641C8.98089 34.661 8.08809 34.2675 7.61233 33.7918C6.19525 32.3749 7.61215 32.8472 9.50086 32.3749C11.863 31.9025 13.2801 30.9579 15.1692 30.0133C16.1137 29.541 18.9472 29.7616 16.5864 30.9579C14.7988 31.8635 12.3355 33.3195 9.97322 34.2641Z"/>
<path fill="#BCBCBC" d="M25.0872 33.7918L22.2531 32.3749C21.8531 31.638 25.3772 32.7433 26.9771 32.3749C28.577 32.0065 27.7446 27.003 28.8657 28.124C29.338 28.5963 30.1393 31.7626 28.7588 33.3195C27.9213 34.2641 26.5044 34.7365 25.0872 33.7918Z"/>
</svg>